<?xml version="1.0" standalone="no"?>
<!DOCTYPE svg PUBLIC "-//W3C//DTD SVG 20010904//EN"
 "http://www.w3.org/TR/2001/REC-SVG-20010904/DTD/svg10.dtd">
<svg version="1.0" xmlns="http://www.w3.org/2000/svg"
 width="300.000000pt" height="300.000000pt" viewBox="0 0 300.000000 300.000000"
 preserveAspectRatio="xMidYMid meet">
<metadata>
Created by potrace 1.14, written by Peter Selinger 2001-2017
</metadata>
<g transform="translate(0.000000,300.000000) scale(0.100000,-0.100000)"
fill="#000000" stroke="none">
<path d="M1209 2881 c-35 -5 -54 -15 -80 -43 -26 -27 -46 -38 -86 -45 -35 -7
-53 -7 -53 0 0 5 -6 4 -14 -2 -8 -6 -31 -14 -52 -16 -130 -16 -181 -42 -315
-164 -65 -59 -108 -131 -167 -281 -16 -41 -32 -95 -36 -119 -4 -24 -13 -55
-20 -70 -9 -16 -12 -45 -10 -76 5 -49 13 -366 13 -477 0 -32 11 -104 24 -160
14 -57 32 -141 42 -188 30 -147 50 -175 121 -168 34 3 38 0 48 -27 10 -31 12
-484 1 -543 -4 -23 -11 -32 -26 -32 -11 0 -23 -8 -27 -18 -9 -20 -50 -68 -112
-128 -34 -34 -42 -46 -31 -53 9 -6 10 -11 2 -15 -6 -4 -11 -2 -11 4 0 6 -5 8
-11 5 -6 -4 -8 -9 -5 -12 2 -2 -3 -12 -12 -22 -47 -49 -72 -82 -72 -97 0 -10
6 -14 14 -11 15 6 31 -19 17 -27 -4 -3 -21 -4 -37 -2 -34 4 -71 -17 -79 -45
-4 -11 -21 -26 -38 -33 -28 -13 32 -14 463 -15 399 0 500 2 519 13 14 8 31 11
39 8 8 -2 17 0 21 5 15 25 49 23 80 -3 24 -20 31 -22 31 -10 0 9 -7 16 -15 16
-8 0 -15 4 -15 9 0 5 -10 12 -22 16 l-23 8 24 4 c16 3 29 -1 38 -13 7 -10 13
-12 13 -6 0 7 9 12 21 12 15 0 19 4 15 16 -5 13 -1 15 21 9 22 -5 25 -4 14 8
-9 12 -8 16 5 21 13 5 14 9 4 21 -11 13 -6 15 35 15 33 0 45 -4 43 -12 -3 -7
-10 -13 -15 -13 -17 0 -26 -12 -19 -24 8 -13 52 29 48 45 -3 13 55 27 71 17 6
-3 7 -1 3 5 -4 7 -3 12 2 12 14 0 92 76 92 90 0 8 -9 11 -25 8 -17 -4 -26 0
-30 11 -6 20 -45 46 -45 30 0 -5 -4 -8 -10 -4 -5 3 -1 19 10 37 10 17 17 35
14 40 -3 5 -2 8 3 7 22 -4 33 3 33 21 0 11 4 20 9 20 10 0 27 39 23 52 -1 4 3
19 8 33 11 29 4 55 -16 55 -12 0 -12 4 -4 21 14 25 15 23 -39 42 l-44 14 51 5
c32 3 66 15 92 32 67 44 80 35 74 -54 -2 -30 -6 -101 -8 -158 l-5 -103 32 27
c18 15 38 36 46 48 12 18 11 18 -12 -3 -15 -14 -30 -21 -34 -18 -3 4 -1 7 5 7
7 0 12 5 12 10 0 6 15 34 33 63 39 62 74 135 81 167 1 3 13 25 28 50 42 72 58
133 55 208 -2 37 -6 73 -11 80 -4 7 -5 20 -1 31 3 10 -1 31 -10 47 -8 16 -15
34 -15 39 0 15 -42 50 -62 51 -10 1 -18 -9 -22 -27 -5 -24 -11 -29 -35 -29
-29 0 -30 -1 -20 -30 9 -24 7 -38 -11 -75 -22 -46 -22 -50 -4 -163 5 -33 3
-47 -11 -62 -21 -23 -26 -24 -79 -9 l-38 11 20 21 c14 14 18 27 13 37 -5 8
-11 35 -15 60 -4 24 -12 48 -19 52 -7 5 -2 8 14 8 14 0 41 10 60 23 39 26 52
67 22 67 -20 0 -63 34 -63 49 0 5 6 14 14 20 9 8 12 26 9 59 -4 47 -7 55 -38
125 -14 32 -15 44 -5 68 7 17 10 44 6 64 -6 30 -3 40 21 65 15 17 35 30 43 30
9 0 22 6 29 13 14 12 13 6 -5 -60 -5 -18 -2 -23 12 -24 11 0 14 -3 7 -6 -47
-18 31 -122 107 -143 64 -18 136 -22 121 -7 -6 6 -11 19 -11 28 0 10 -11 20
-27 24 l-28 7 24 9 c14 6 31 15 39 22 8 6 26 11 41 9 22 -2 29 5 49 46 12 27
22 54 22 60 0 7 6 12 13 12 9 0 9 2 0 8 -7 4 -12 16 -12 27 0 11 -2 29 -5 40
-2 11 -5 23 -5 26 -1 8 -70 41 -91 44 -47 4 -99 27 -105 46 -4 13 -14 19 -28
18 -30 -3 -57 10 -57 27 0 18 -34 31 -75 29 -25 -1 -30 -5 -28 -23 2 -12 -2
-22 -7 -22 -6 0 -10 7 -10 16 0 13 -7 15 -30 10 -20 -3 -29 -2 -25 4 4 6 -10
17 -29 25 -28 12 -36 21 -36 40 0 14 -5 25 -11 25 -6 0 -9 -9 -6 -20 4 -15 0
-20 -15 -20 -17 0 -48 21 -48 33 0 3 9 7 20 10 11 3 20 11 20 19 0 10 -3 9
-11 -2 -9 -13 -10 -13 -6 0 6 23 54 25 60 3 3 -10 5 -2 6 18 0 19 7 43 14 53
12 17 15 17 29 2 14 -14 17 -14 22 0 3 8 10 12 16 9 5 -3 10 -1 10 4 0 18 18
12 23 -6 3 -10 5 -1 6 20 0 20 -4 37 -10 37 -5 0 -7 -4 -4 -10 3 -5 -1 -10 -9
-10 -9 0 -15 3 -15 8 1 4 1 14 0 22 -1 11 -3 12 -9 3 -6 -10 -12 -9 -28 3 -18
15 -18 15 0 10 16 -6 17 -4 6 9 -7 8 -16 13 -20 10 -11 -7 -33 22 -25 35 3 5
1 10 -4 10 -6 0 -11 6 -11 14 0 7 -11 16 -25 18 -20 4 -25 1 -25 -16 0 -12 -9
-25 -22 -31 -26 -12 -68 -70 -68 -95 0 -9 11 -23 25 -30 14 -7 25 -19 25 -26
0 -7 5 -14 11 -16 14 -5 2 -68 -12 -68 -6 0 -8 -4 -5 -9 3 -5 -1 -11 -9 -15
-8 -3 -15 -12 -15 -21 0 -8 -5 -15 -11 -15 -5 0 -8 4 -5 9 3 5 -1 12 -10 15
-23 9 -27 8 -21 -7 4 -10 -15 -12 -86 -11 -61 2 -102 -2 -126 -12 -19 -8 -36
-12 -39 -9 -3 2 -16 -5 -30 -15 -20 -17 -28 -18 -40 -8 -13 11 -11 13 16 16
18 2 32 8 32 14 0 6 -14 8 -37 3 -50 -9 -75 -23 -68 -38 4 -7 0 -3 -9 7 -15
18 -16 18 -36 -5 l-21 -24 7 25 c6 23 5 24 -11 10 -15 -12 -18 -12 -26 3 -6 9
-15 17 -22 17 -8 0 -7 -4 2 -9 12 -8 12 -12 2 -24 -9 -12 -9 -16 1 -20 7 -3
-1 -6 -18 -6 -24 -1 -33 -7 -45 -32 -13 -29 -40 -43 -30 -16 3 7 5 30 6 52 2
51 15 105 26 105 5 0 9 4 9 10 0 5 18 29 40 51 39 40 40 43 40 110 0 42 4 69
11 69 5 0 8 -4 5 -8 -2 -4 11 -6 30 -4 39 5 47 22 10 22 -40 0 -39 17 1 41 44
27 51 35 48 58 -1 9 0 11 2 4 2 -6 14 -13 26 -15 l22 -3 -22 -22 c-19 -19 -20
-22 -5 -28 9 -3 18 -1 20 4 2 6 12 11 23 11 30 0 22 30 -11 41 -34 12 -40 29
-10 29 10 0 24 8 29 18 6 9 11 12 11 5 0 -6 9 -9 23 -6 18 4 19 3 7 -7 -12
-10 -10 -11 10 -6 14 3 28 6 32 6 4 0 10 9 13 21 5 16 10 18 20 9 11 -9 17 -7
27 9 7 12 23 21 35 21 33 0 57 11 43 20 -8 5 -4 9 9 13 13 3 19 1 15 -5 -4 -6
4 -3 17 6 32 20 69 11 62 -15 -4 -16 0 -19 28 -21 19 -1 45 -1 59 0 14 1 35
-3 48 -10 18 -10 24 -9 35 6 11 15 30 18 128 18 120 1 187 -12 274 -53 37 -17
53 -34 86 -90 23 -38 47 -69 55 -69 17 0 39 -43 48 -91 11 -62 7 -209 -6 -219
-12 -9 -38 -120 -43 -184 -2 -34 -7 -104 -10 -156 l-6 -95 27 50 c14 28 28 65
30 83 2 18 5 41 8 50 14 45 36 194 36 249 0 38 5 67 14 75 7 8 15 38 18 67 3
29 11 56 17 61 17 10 10 86 -7 82 -8 -1 -13 5 -12 15 6 54 -3 85 -40 139 -22
33 -40 65 -40 72 0 15 16 16 26 1 5 -8 9 -7 15 4 6 9 17 13 30 10 19 -5 20 -4
10 15 -6 12 -21 28 -34 37 l-22 17 24 -7 c17 -5 21 -4 16 5 -4 6 -17 10 -29 8
-12 -3 -28 2 -35 10 -12 12 -10 13 10 8 21 -6 22 -5 6 4 -10 7 -24 9 -31 7 -7
-3 -19 -1 -27 4 -11 7 -11 9 -1 9 7 0 11 4 8 9 -3 4 7 6 22 4 21 -4 24 -2 12
6 -8 6 -24 11 -35 11 -11 0 -29 7 -39 15 -22 17 -81 21 -71 5 3 -5 -1 -10 -9
-10 -9 0 -16 6 -16 14 0 9 -8 13 -22 10 -21 -4 -20 -3 2 7 14 6 49 9 78 6 29
-2 48 -1 41 3 -8 6 -8 9 2 13 12 5 -23 11 -43 8 -4 0 -28 10 -54 24 -33 17
-41 25 -26 25 15 0 20 4 15 16 -3 8 -11 13 -18 11 -6 -3 -12 1 -12 9 0 10 6
10 28 -3 15 -9 25 -22 23 -28 -3 -6 2 -18 11 -25 10 -8 15 -9 15 -1 0 16 31
13 54 -4 11 -8 29 -15 39 -15 19 0 20 1 2 20 -10 11 -24 20 -32 20 -16 0 -50
30 -44 39 2 3 -6 10 -18 16 -11 5 -21 13 -21 17 0 5 -12 8 -27 8 -18 0 -24 3
-15 8 8 6 0 9 -20 9 -18 0 -62 1 -98 3 -54 2 -61 4 -40 12 14 5 37 7 52 4 21
-4 30 0 38 14 11 20 -2 36 -19 26 -5 -3 -11 1 -15 9 -3 10 -19 15 -42 15 -33
0 -110 28 -101 36 2 2 18 -3 36 -12 18 -9 35 -14 38 -11 11 11 -127 65 -194
76 -124 19 -137 21 -258 31 -131 10 -167 11 -236 1z m281 -25 c0 -2 -7 -9 -15
-16 -13 -11 -14 -10 -9 4 5 14 24 23 24 12z m-54 -29 c4 -4 -4 -6 -19 -5 -14
1 -24 5 -21 9 5 9 31 6 40 -4z m317 -44 c-7 -2 -21 -2 -30 0 -10 3 -4 5 12 5
17 0 24 -2 18 -5z m-536 -9 c-3 -3 -12 -4 -19 -1 -8 3 -5 6 6 6 11 1 17 -2 13
-5z m522 -31 c-7 -10 -14 -20 -16 -22 -1 -1 -7 0 -13 4 -8 5 -5 11 7 21 25 19
38 17 22 -3z m-859 -23 c-8 -6 -31 -9 -50 -9 -28 0 -31 2 -15 8 30 12 83 12
65 1z m1130 -60 c10 0 11 -3 4 -10 -7 -7 -19 -8 -37 -1 -33 13 -36 26 -4 17
12 -3 29 -6 37 -6z m-80 -4 c0 -11 -19 -15 -25 -6 -3 5 1 10 9 10 9 0 16 -2
16 -4z m170 -14 c0 -10 -56 -9 -66 1 -4 4 9 7 29 7 21 0 37 -4 37 -8z m-112
-63 c-2 -6 -7 -10 -11 -10 -4 1 -14 1 -23 1 -8 0 -12 5 -9 10 8 13 48 13 43
-1z m61 -28 c7 -5 12 -13 10 -18 -2 -6 -13 -2 -23 8 -20 19 -12 26 13 10z
m196 -171 c3 -5 2 -10 -4 -10 -5 0 -13 5 -16 10 -3 6 -2 10 4 10 5 0 13 -4 16
-10z m-715 -10 c12 -8 9 -10 -13 -10 -16 0 -26 4 -22 10 8 12 16 12 35 0z
m-357 -97 c4 -3 -2 -13 -14 -21 -24 -17 -37 -9 -19 13 14 16 23 19 33 8z m72
-3 c-3 -5 -11 -10 -16 -10 -6 0 -7 5 -4 10 3 6 11 10 16 10 6 0 7 -4 4 -10z
m395 -336 c0 -2 -9 -4 -20 -4 -11 0 -20 4 -20 9 0 5 9 7 20 4 11 -3 20 -7 20
-9z m-768 -229 c-2 -14 -8 -25 -13 -25 -10 0 -12 34 -2 43 13 14 20 6 15 -18z
m-47 -106 c-10 -21 -23 -39 -29 -40 -6 0 -2 -4 9 -9 11 -5 14 -9 7 -9 -7 -1
-10 -5 -7 -11 3 -5 2 -10 -4 -10 -5 0 -12 -8 -15 -18 -3 -10 -15 -18 -27 -19
-21 -2 -22 21 -1 23 25 3 27 5 15 12 -8 5 -6 18 7 47 11 22 19 45 20 52 0 6 8
19 17 29 25 25 29 1 8 -47z m205 47 c0 -2 -7 -6 -15 -10 -8 -3 -15 -1 -15 4 0
6 7 10 15 10 8 0 15 -2 15 -4z m-486 -87 c-13 -21 -47 1 -38 25 6 16 8 16 25
0 10 -9 16 -21 13 -25z m466 26 c10 -12 10 -15 -3 -15 -8 0 -20 7 -27 15 -10
12 -10 15 3 15 8 0 20 -7 27 -15z m-450 -63 c0 -8 -43 -32 -55 -32 -15 0 -1
22 18 30 29 11 37 12 37 2z m1108 -56 c-7 -8 -15 -12 -17 -11 -5 6 10 25 20
25 5 0 4 -6 -3 -14z m-908 -21 c0 -8 -10 -20 -22 -26 -19 -9 -21 -9 -10 2 6 7
12 21 12 32 0 10 5 15 10 12 6 -3 10 -13 10 -20z m927 -53 c-1 -17 -6 -30 -12
-29 -5 1 -11 -9 -13 -22 -3 -19 0 -23 15 -17 16 5 16 4 -2 -9 -11 -9 -20 -22
-20 -30 0 -8 -5 -15 -10 -15 -6 0 -10 4 -10 9 0 5 -3 13 -7 17 -4 4 -5 18 -2
30 4 15 2 24 -5 24 -6 0 -11 -6 -12 -12 0 -10 -2 -10 -6 0 -2 6 -12 12 -20 12
-26 0 -9 10 24 14 16 1 40 13 53 26 23 23 23 23 2 18 -16 -4 -22 -2 -22 9 0
10 6 14 19 10 15 -3 18 -1 14 12 -4 15 -4 15 6 0 6 -9 9 -30 8 -47z m358 39
c-3 -6 -11 -11 -16 -11 -5 0 -4 6 3 14 14 16 24 13 13 -3z m-1432 -51 c-3 -11
-9 -20 -14 -20 -11 0 -11 3 -3 24 9 23 23 20 17 -4z m567 -10 c0 -5 8 -10 18
-10 24 -1 62 -35 62 -56 0 -14 -74 -94 -87 -94 -1 0 -3 8 -3 18 -1 9 -7 -1
-16 -23 -8 -22 -12 -50 -9 -62 3 -12 1 -25 -5 -28 -5 -3 -11 2 -11 12 -1 17
-2 17 -6 1 -3 -13 -15 -18 -44 -18 -36 0 -39 2 -40 28 l-2 27 -4 -27 c-5 -32
-23 -38 -23 -8 0 13 -7 20 -19 20 -22 0 -37 17 -26 28 4 4 10 1 12 -5 6 -15
39 -17 48 -3 3 6 -5 10 -19 10 -32 0 -56 38 -34 54 8 6 13 17 11 24 -3 6 2 12
11 12 9 0 16 8 16 17 0 13 3 14 12 5 7 -7 26 -12 44 -12 28 0 32 4 38 35 5 27
12 35 29 36 21 0 21 1 2 8 -21 9 -20 9 38 20 4 0 7 -3 7 -9z m-150 -32 c-1
-16 -49 -52 -57 -44 -7 7 36 56 49 56 4 0 8 -6 8 -12z m-420 -40 c0 -15 -5
-19 -20 -15 -10 3 -21 0 -24 -7 -2 -6 -5 3 -5 20 -1 28 2 31 24 26 17 -3 25
-11 25 -24z m930 7 c0 -15 -21 -12 -30 5 -11 20 -10 21 9 10 12 -6 21 -13 21
-15z m80 -15 c0 -5 -5 -10 -11 -10 -5 0 -7 5 -4 10 3 6 8 10 11 10 2 0 4 -4 4
-10z m-13 -62 c1 -16 -2 -26 -7 -23 -6 4 -10 16 -10 28 -1 20 -2 20 -11 4 -6
-9 -15 -14 -21 -11 -7 5 -6 11 5 19 27 19 42 13 44 -17z m113 -136 c0 -15 -11
-21 -27 -15 -12 5 -12 7 -1 14 17 11 28 11 28 1z m-135 -12 c-3 -5 -11 -10
-16 -10 -6 0 -7 5 -4 10 3 6 11 10 16 10 6 0 7 -4 4 -10z m-118 -307 c-4 -3
-3 -11 2 -17 6 -7 1 -11 -15 -11 -16 0 -24 6 -24 18 0 11 8 17 22 17 12 0 18
-3 15 -7z m67 -20 c3 -10 9 -24 12 -30 4 -9 -3 -13 -20 -13 -26 0 -32 13 -20
44 8 21 20 20 28 -1z m193 -20 c5 -14 -66 -56 -84 -49 -7 3 -12 11 -11 18 2 7
-5 12 -14 12 -10 -1 -14 4 -11 12 6 17 20 18 25 3 2 -6 12 -2 23 9 21 20 65
17 72 -5z m-137 -18 c0 -8 -4 -15 -10 -15 -5 0 -10 7 -10 15 0 8 5 15 10 15 6
0 10 -7 10 -15z m-238 -46 c16 -12 27 -23 25 -26 -8 -7 -67 26 -67 37 0 15 9
12 42 -11z m-952 -574 c0 -28 -17 -34 -27 -9 -3 9 0 20 8 25 19 12 19 12 19
-16z m47 -1 c-3 -3 -12 -4 -19 -1 -8 3 -5 6 6 6 11 1 17 -2 13 -5z m-83 -66
c6 -4 7 -10 3 -14 -11 -11 -37 17 -37 40 1 21 1 21 12 1 6 -11 16 -23 22 -27z"/>
<path d="M1128 1323 c7 -3 16 -2 19 1 4 3 -2 6 -13 5 -11 0 -14 -3 -6 -6z"/>
<path d="M1231 1304 c0 -11 3 -14 6 -6 3 7 2 16 -1 19 -3 4 -6 -2 -5 -13z"/>
<path d="M970 1220 c0 -5 5 -10 10 -10 6 0 10 5 10 10 0 6 -4 10 -10 10 -5 0
-10 -4 -10 -10z"/>
<path d="M1085 1190 c-7 -12 13 -23 27 -14 7 4 8 3 4 -4 -4 -7 -2 -12 3 -12 6
0 11 8 11 18 0 18 -35 28 -45 12z"/>
<path d="M2230 2485 c7 -8 20 -15 29 -15 13 1 13 3 -3 15 -26 19 -42 19 -26 0z"/>
<path d="M1150 1980 c0 -5 5 -10 10 -10 6 0 10 5 10 10 0 6 -4 10 -10 10 -5 0
-10 -4 -10 -10z"/>
<path d="M1790 1971 c-17 -18 -22 -41 -9 -41 5 0 9 6 9 14 0 8 9 16 19 18 14
2 16 6 7 14 -9 8 -16 7 -26 -5z"/>
<path d="M1850 1830 c0 -5 5 -10 10 -10 6 0 10 5 10 10 0 6 -4 10 -10 10 -5 0
-10 -4 -10 -10z"/>
<path d="M1886 1825 c-9 -26 -7 -32 5 -12 6 10 9 21 6 23 -2 3 -7 -2 -11 -11z"/>
<path d="M2076 898 c-13 -24 -38 -74 -54 -113 -16 -38 -41 -96 -55 -127 -32
-70 -15 -86 21 -19 13 25 27 48 31 51 4 3 13 21 21 40 8 19 17 37 21 40 4 3
10 17 12 30 2 14 6 32 9 40 13 36 27 94 24 98 -3 2 -16 -16 -30 -40z"/>
<path d="M1893 514 c-12 -19 -19 -34 -15 -34 11 1 44 49 40 59 -2 5 -13 -7
-25 -25z"/>
<path d="M1802 340 c0 -14 2 -19 5 -12 2 6 2 18 0 25 -3 6 -5 1 -5 -13z"/>
<path d="M1716 291 c-18 -33 -20 -51 -8 -51 9 0 34 71 27 78 -2 2 -11 -10 -19
-27z"/>
<path d="M1845 300 c-3 -5 -1 -10 4 -10 6 0 11 5 11 10 0 6 -2 10 -4 10 -3 0
-8 -4 -11 -10z"/>
<path d="M1776 231 c-8 -12 11 -73 25 -82 19 -11 39 1 39 25 0 42 -47 85 -64
57z m34 -21 c0 -5 -4 -10 -10 -10 -5 0 -10 5 -10 10 0 6 5 10 10 10 6 0 10 -4
10 -10z"/>
<path d="M1745 170 c3 -5 8 -10 11 -10 2 0 4 5 4 10 0 6 -5 10 -11 10 -5 0 -7
-4 -4 -10z"/>
<path d="M1807 116 c-7 -18 1 -26 25 -26 21 0 23 11 6 28 -16 16 -25 15 -31
-2z"/>
<path d="M1872 108 c-15 -15 -16 -41 0 -36 6 2 18 14 26 26 12 19 12 22 0 22
-8 0 -19 -5 -26 -12z"/>
<path d="M1660 105 c0 -5 5 -16 31 -66 9 -19 8 -21 -5 -16 -10 4 -16 1 -16 -8
0 -10 10 -15 30 -15 35 0 43 29 10 37 -11 3 -20 10 -19 17 2 18 -13 56 -22 56
-5 0 -9 -2 -9 -5z"/>
<path d="M1466 65 c19 -28 36 -32 54 -10 11 13 8 15 -13 15 -14 0 -29 5 -32
10 -3 6 -11 10 -16 10 -5 0 -2 -11 7 -25z"/>
<path d="M1555 60 c3 -5 10 -10 16 -10 5 0 9 5 9 10 0 6 -7 10 -16 10 -8 0
-12 -4 -9 -10z"/>
<path d="M1446 42 c-12 -19 6 -42 33 -42 22 1 23 2 9 11 -10 5 -21 17 -26 26
-6 9 -12 12 -16 5z"/>
<path d="M1615 40 c4 -6 11 -8 16 -5 14 9 11 15 -7 15 -8 0 -12 -5 -9 -10z"/>
<path d="M1588 23 c7 -3 16 -2 19 1 4 3 -2 6 -13 5 -11 0 -14 -3 -6 -6z"/>
<path d="M1245 10 c-8 -13 5 -13 25 0 13 8 13 10 -2 10 -9 0 -20 -4 -23 -10z"/>
<path d="M1390 10 l-25 -8 28 -1 c15 -1 27 4 27 9 0 6 -1 10 -2 9 -2 -1 -14
-5 -28 -9z"/>
</g>
</svg>
